# xmcd
#
# Track frame offsets:
#	150
#	16022
#	30730
#	54595
#	69622
#	88285
#	104345
#	121697
#	137850
#	151515
#	165712
#	180940
#
# Disc length: 2615 seconds
#
# Revision: 8
# Processed by: cddbd v1.5.2PL0 Copyright (c) Steve Scherf et al.
# Submitted via: audiograbber 1.83.01
#
DISCID=8f0a350c
DTITLE=Andrews, Jessica - Heart shaped world
DYEAR=1999
DGENRE=Country
TTITLE0=James Dean in Tennessee
TTITLE1=You go first
TTITLE2=The riverside
TTITLE3=Whatever
TTITLE4=Unbreakable heart
TTITLE5=Hungry love
TTITLE6=Heart shaped world
TTITLE7=I'll take your heart
TTITLE8=I do now
TTITLE9=I've been waiting for you
TTITLE10=Ruby shoes
TTITLE11=I will be there for you
EXTD=
EXTT0=
EXTT1=
EXTT2=
EXTT3=
EXTT4=
EXTT5=
EXTT6=
EXTT7=
EXTT8=
EXTT9=
EXTT10=
EXTT11=
PLAYORDER=
